# 3ds Max Wavefront OBJ Exporter v0.97b - (c)2007 guruware
# File Created: 09.02.2015 22:59:02

mtllib hay_OBJ.mtl

#
# object Plane001
#

v  -29.6072 0.0000 29.7738
v  -23.6857 0.0000 29.7738
v  -23.6857 0.0000 23.8190
v  -29.6072 0.0000 23.8190
v  -17.7643 0.0000 29.7738
v  -17.7643 0.0000 23.8190
v  -11.8429 0.0000 29.7738
v  -11.8429 0.0000 23.8190
v  -5.9214 0.0000 29.7738
v  -5.9214 0.0000 23.8190
v  -0.0000 0.0000 29.7738
v  -0.0000 0.0024 23.8190
v  5.9214 0.0000 29.7738
v  5.9214 0.0211 23.8190
v  11.8429 0.0000 29.7738
v  11.8429 0.0024 23.8190
v  17.7643 0.0000 29.7738
v  17.7643 0.0000 23.8190
v  23.6857 0.0000 29.7738
v  23.6857 0.0000 23.8190
v  29.6072 0.0000 29.7738
v  29.6072 0.0000 23.8190
v  -23.6857 0.0000 17.8643
v  -29.6072 0.0000 17.8643
v  -17.7643 0.0000 17.8643
v  -11.8429 0.0000 17.8643
v  -5.9214 0.1487 17.8643
v  -0.0000 0.5881 17.8643
v  5.9214 0.5271 17.8643
v  11.8429 0.3079 17.8643
v  17.7643 0.0619 17.8643
v  23.6857 0.0000 17.8643
v  29.6072 0.0000 17.8643
v  -23.6857 0.0000 11.9095
v  -29.6072 0.0000 11.9095
v  -17.7643 0.0000 11.9095
v  -11.8429 0.5917 11.9095
v  -5.9214 2.6065 11.9095
v  -0.0000 3.9913 11.9095
v  5.9214 3.3849 11.9095
v  11.8429 1.4132 11.9095
v  17.7643 0.3119 11.9095
v  23.6857 0.0033 11.9095
v  29.6072 0.0000 11.9095
v  -23.6857 0.0000 5.9548
v  -29.6072 0.0000 5.9548
v  -17.7643 0.0979 5.9548
v  -11.8429 2.2971 5.9548
v  -5.9214 5.8457 5.9548
v  -0.0000 7.9242 5.9548
v  5.9214 6.8417 5.9548
v  11.8429 3.4148 5.9548
v  17.7643 0.5465 5.9548
v  23.6857 0.0241 5.9548
v  29.6072 0.0000 5.9548
v  -23.6857 0.0000 -0.0000
v  -29.6072 0.0000 -0.0000
v  -17.7643 0.2957 -0.0000
v  -11.8429 3.1117 -0.0000
v  -5.9214 7.1300 -0.0000
v  -0.0000 9.4224 -0.0000
v  5.9214 7.9383 -0.0000
v  11.8429 4.0336 -0.0000
v  17.7643 0.6179 -0.0000
v  23.6857 0.0033 -0.0000
v  29.6072 0.0000 -0.0000
v  -23.6857 0.0000 -5.9548
v  -29.6072 0.0000 -5.9548
v  -17.7643 0.0979 -5.9548
v  -11.8429 2.2541 -5.9548
v  -5.9214 5.3849 -5.9548
v  -0.0000 7.1078 -5.9548
v  5.9214 5.8382 -5.9548
v  11.8429 2.6281 -5.9548
v  17.7643 0.1612 -5.9548
v  23.6857 0.0000 -5.9548
v  29.6072 0.0000 -5.9548
v  -23.6857 0.0000 -11.9095
v  -29.6072 0.0000 -11.9095
v  -17.7643 0.0000 -11.9095
v  -11.8429 0.5863 -11.9095
v  -5.9214 2.2286 -11.9095
v  -0.0000 3.0684 -11.9095
v  5.9214 2.2674 -11.9095
v  11.8429 0.5905 -11.9095
v  17.7643 0.0000 -11.9095
v  23.6857 0.0000 -11.9095
v  29.6072 0.0000 -11.9095
v  -23.6857 0.0000 -17.8643
v  -29.6072 0.0000 -17.8643
v  -17.7643 0.0000 -17.8643
v  -11.8429 0.0000 -17.8643
v  -5.9214 0.0855 -17.8643
v  -0.0000 0.2708 -17.8643
v  5.9214 0.0855 -17.8643
v  11.8429 0.0000 -17.8643
v  17.7643 0.0000 -17.8643
v  23.6857 0.0000 -17.8643
v  29.6072 0.0000 -17.8643
v  -23.6857 0.0000 -23.8190
v  -29.6072 0.0000 -23.8190
v  -17.7643 0.0000 -23.8190
v  -11.8429 0.0000 -23.8190
v  -5.9214 0.0000 -23.8190
v  -0.0000 0.0000 -23.8190
v  5.9214 0.0000 -23.8190
v  11.8429 0.0000 -23.8190
v  17.7643 0.0000 -23.8190
v  23.6857 0.0000 -23.8190
v  29.6072 0.0000 -23.8190
v  -23.6857 0.0000 -29.7738
v  -29.6072 0.0000 -29.7738
v  -17.7643 0.0000 -29.7738
v  -11.8429 0.0000 -29.7738
v  -5.9214 0.0000 -29.7738
v  -0.0000 0.0000 -29.7738
v  5.9214 0.0000 -29.7738
v  11.8429 0.0000 -29.7738
v  17.7643 0.0000 -29.7738
v  23.6857 0.0000 -29.7738
v  29.6072 0.0000 -29.7738
# 121 vertices

vn 0.0000 1.0000 -0.0000
vn -0.0031 1.0000 0.0031
vn -0.0001 1.0000 0.0001
vn -0.0094 0.9997 0.0217
vn -0.0008 1.0000 0.0012
vn -0.0001 0.9989 0.0475
vn 0.0008 1.0000 0.0028
vn 0.0046 0.9992 0.0395
vn 0.0001 1.0000 0.0003
vn 0.0065 0.9998 0.0211
vn 0.0015 1.0000 0.0039
vn -0.0124 0.9998 0.0124
vn -0.0500 0.9950 0.0870
vn -0.0616 0.9738 0.2190
vn -0.0118 0.9577 0.2874
vn 0.0553 0.9712 0.2318
vn 0.0526 0.9932 0.1035
vn 0.0260 0.9993 0.0261
vn 0.0040 1.0000 0.0015
vn -0.0021 1.0000 0.0021
vn -0.0823 0.9958 0.0408
vn -0.2184 0.9564 0.1938
vn -0.2319 0.8872 0.3989
vn -0.0333 0.8625 0.5049
vn 0.2070 0.8715 0.4445
vn 0.2420 0.9394 0.2427
vn 0.1043 0.9931 0.0537
vn 0.0216 0.9997 0.0068
vn 0.0004 1.0000 0.0001
vn -0.0124 0.9999 0.0042
vn -0.1940 0.9804 0.0337
vn -0.4083 0.8973 0.1677
vn -0.3878 0.8697 0.3053
vn -0.0543 0.9249 0.3764
vn 0.3244 0.8881 0.3256
vn 0.4453 0.8707 0.2088
vn 0.2352 0.9703 0.0572
vn 0.0411 0.9991 0.0049
vn 0.0032 1.0000 0.0009
vn -0.0208 0.9998 -0.0042
vn -0.2292 0.9732 -0.0167
vn -0.4766 0.8786 -0.0292
vn -0.4404 0.8964 -0.0507
vn -0.0583 0.9966 -0.0585
vn 0.3756 0.9252 -0.0544
vn 0.5062 0.8617 -0.0334
vn 0.2917 0.9564 -0.0117
vn 0.0500 0.9988 -0.0000
vn 0.0014 1.0000 -0.0009
vn -0.0062 1.0000 -0.0021
vn -0.1545 0.9866 -0.0519
vn -0.3844 0.8997 -0.2070
vn -0.3520 0.8668 -0.3533
vn -0.0504 0.8961 -0.4410
vn 0.3041 0.8698 -0.3887
vn 0.3995 0.8865 -0.2334
vn 0.2214 0.9731 -0.0635
vn 0.0231 0.9997 -0.0098
vn 0.0001 1.0000 -0.0001
vn -0.0391 0.9991 -0.0185
vn -0.1796 0.9671 -0.1801
vn -0.2051 0.9006 -0.3833
vn -0.0288 0.8798 -0.4745
vn 0.1661 0.8984 -0.4067
vn 0.1926 0.9565 -0.2190
vn 0.0873 0.9949 -0.0512
vn 0.0034 1.0000 -0.0034
vn -0.0177 0.9991 -0.0385
vn -0.0499 0.9872 -0.1516
vn -0.0163 0.9742 -0.2250
vn 0.0321 0.9811 -0.1911
vn 0.0395 0.9959 -0.0817
vn 0.0124 0.9998 -0.0124
vn -0.0018 1.0000 -0.0054
vn -0.0039 0.9998 -0.0188
vn 0.0039 0.9999 -0.0111
vn 0.0018 1.0000 -0.0018
# 77 vertex normals

vt 0.0100 0.9845 0.0000
vt 0.0100 0.8871 0.0000
vt 0.1080 0.8871 0.0000
vt 0.1080 0.9845 0.0000
vt 0.0100 0.7896 0.0000
vt 0.1080 0.7896 0.0000
vt 0.0100 0.6922 0.0000
vt 0.1080 0.6922 0.0000
vt 0.0100 0.5947 0.0000
vt 0.1080 0.5947 0.0000
vt 0.0100 0.4973 0.0000
vt 0.1080 0.4973 0.0000
vt 0.0100 0.3998 0.0000
vt 0.1080 0.3998 0.0000
vt 0.0100 0.3024 0.0000
vt 0.1080 0.3024 0.0000
vt 0.0100 0.2049 0.0000
vt 0.1080 0.2049 0.0000
vt 0.0100 0.1075 0.0000
vt 0.1080 0.1075 0.0000
vt 0.0100 0.0100 0.0000
vt 0.1080 0.0100 0.0000
vt 0.2060 0.8871 0.0000
vt 0.2060 0.9845 0.0000
vt 0.2060 0.7896 0.0000
vt 0.2060 0.6922 0.0000
vt 0.2060 0.5947 0.0000
vt 0.2060 0.4973 0.0000
vt 0.2060 0.3998 0.0000
vt 0.2060 0.3024 0.0000
vt 0.2060 0.2049 0.0000
vt 0.2060 0.1075 0.0000
vt 0.2060 0.0100 0.0000
vt 0.3040 0.8871 0.0000
vt 0.3040 0.9845 0.0000
vt 0.3040 0.7896 0.0000
vt 0.3040 0.6922 0.0000
vt 0.3040 0.5947 0.0000
vt 0.3040 0.4973 0.0000
vt 0.3040 0.3998 0.0000
vt 0.3040 0.3024 0.0000
vt 0.3040 0.2049 0.0000
vt 0.3040 0.1075 0.0000
vt 0.3040 0.0100 0.0000
vt 0.4020 0.8871 0.0000
vt 0.4020 0.9845 0.0000
vt 0.4020 0.7896 0.0000
vt 0.4020 0.6922 0.0000
vt 0.4020 0.5947 0.0000
vt 0.4020 0.4973 0.0000
vt 0.4020 0.3998 0.0000
vt 0.4020 0.3024 0.0000
vt 0.4020 0.2049 0.0000
vt 0.4020 0.1075 0.0000
vt 0.4020 0.0100 0.0000
vt 0.5000 0.8871 0.0000
vt 0.5000 0.9845 0.0000
vt 0.5000 0.7896 0.0000
vt 0.5000 0.6922 0.0000
vt 0.5000 0.5947 0.0000
vt 0.5000 0.4973 0.0000
vt 0.5000 0.3998 0.0000
vt 0.5000 0.3024 0.0000
vt 0.5000 0.2049 0.0000
vt 0.5000 0.1075 0.0000
vt 0.5000 0.0100 0.0000
vt 0.5980 0.8871 0.0000
vt 0.5980 0.9845 0.0000
vt 0.5980 0.7896 0.0000
vt 0.5980 0.6922 0.0000
vt 0.5980 0.5947 0.0000
vt 0.5980 0.4973 0.0000
vt 0.5980 0.3998 0.0000
vt 0.5980 0.3024 0.0000
vt 0.5980 0.2049 0.0000
vt 0.5980 0.1075 0.0000
vt 0.5980 0.0100 0.0000
vt 0.6960 0.8871 0.0000
vt 0.6960 0.9845 0.0000
vt 0.6960 0.7896 0.0000
vt 0.6960 0.6922 0.0000
vt 0.6960 0.5947 0.0000
vt 0.6960 0.4973 0.0000
vt 0.6960 0.3998 0.0000
vt 0.6960 0.3024 0.0000
vt 0.6960 0.2049 0.0000
vt 0.6960 0.1075 0.0000
vt 0.6960 0.0100 0.0000
vt 0.7940 0.8871 0.0000
vt 0.7940 0.9845 0.0000
vt 0.7940 0.7896 0.0000
vt 0.7940 0.6922 0.0000
vt 0.7940 0.5947 0.0000
vt 0.7940 0.4973 0.0000
vt 0.7940 0.3998 0.0000
vt 0.7940 0.3024 0.0000
vt 0.7940 0.2049 0.0000
vt 0.7940 0.1075 0.0000
vt 0.7940 0.0100 0.0000
vt 0.8920 0.8871 0.0000
vt 0.8920 0.9845 0.0000
vt 0.8920 0.7896 0.0000
vt 0.8920 0.6922 0.0000
vt 0.8920 0.5947 0.0000
vt 0.8920 0.4973 0.0000
vt 0.8920 0.3998 0.0000
vt 0.8920 0.3024 0.0000
vt 0.8920 0.2049 0.0000
vt 0.8920 0.1075 0.0000
vt 0.8920 0.0100 0.0000
vt 0.9900 0.8871 0.0000
vt 0.9900 0.9845 0.0000
vt 0.9900 0.7896 0.0000
vt 0.9900 0.6922 0.0000
vt 0.9900 0.5947 0.0000
vt 0.9900 0.4973 0.0000
vt 0.9900 0.3998 0.0000
vt 0.9900 0.3024 0.0000
vt 0.9900 0.2049 0.0000
vt 0.9900 0.1075 0.0000
vt 0.9900 0.0100 0.0000
# 121 texture coords

g Plane001
usemtl 01___Default
s 1
f 1/1/1 2/2/1 3/3/1 4/4/1 
f 2/2/1 5/5/1 6/6/1 3/3/1 
f 5/5/1 7/7/1 8/8/2 6/6/1 
f 7/7/1 9/9/3 10/10/4 8/8/2 
f 9/9/3 11/11/5 12/12/6 10/10/4 
f 11/11/5 13/13/7 14/14/8 12/12/6 
f 13/13/7 15/15/9 16/16/10 14/14/8 
f 15/15/9 17/17/1 18/18/11 16/16/10 
f 17/17/1 19/19/1 20/20/1 18/18/11 
f 19/19/1 21/21/1 22/22/1 20/20/1 
f 4/4/1 3/3/1 23/23/1 24/24/1 
f 3/3/1 6/6/1 25/25/12 23/23/1 
f 6/6/1 8/8/2 26/26/13 25/25/12 
f 8/8/2 10/10/4 27/27/14 26/26/13 
f 10/10/4 12/12/6 28/28/15 27/27/14 
f 12/12/6 14/14/8 29/29/16 28/28/15 
f 14/14/8 16/16/10 30/30/17 29/29/16 
f 16/16/10 18/18/11 31/31/18 30/30/17 
f 18/18/11 20/20/1 32/32/19 31/31/18 
f 20/20/1 22/22/1 33/33/1 32/32/19 
f 24/24/1 23/23/1 34/34/20 35/35/1 
f 23/23/1 25/25/12 36/36/21 34/34/20 
f 25/25/12 26/26/13 37/37/22 36/36/21 
f 26/26/13 27/27/14 38/38/23 37/37/22 
f 27/27/14 28/28/15 39/39/24 38/38/23 
f 28/28/15 29/29/16 40/40/25 39/39/24 
f 29/29/16 30/30/17 41/41/26 40/40/25 
f 30/30/17 31/31/18 42/42/27 41/41/26 
f 31/31/18 32/32/19 43/43/28 42/42/27 
f 32/32/19 33/33/1 44/44/29 43/43/28 
f 35/35/1 34/34/20 45/45/30 46/46/1 
f 34/34/20 36/36/21 47/47/31 45/45/30 
f 36/36/21 37/37/22 48/48/32 47/47/31 
f 37/37/22 38/38/23 49/49/33 48/48/32 
f 38/38/23 39/39/24 50/50/34 49/49/33 
f 39/39/24 40/40/25 51/51/35 50/50/34 
f 40/40/25 41/41/26 52/52/36 51/51/35 
f 41/41/26 42/42/27 53/53/37 52/52/36 
f 42/42/27 43/43/28 54/54/38 53/53/37 
f 43/43/28 44/44/29 55/55/39 54/54/38 
f 46/46/1 45/45/30 56/56/40 57/57/1 
f 45/45/30 47/47/31 58/58/41 56/56/40 
f 47/47/31 48/48/32 59/59/42 58/58/41 
f 48/48/32 49/49/33 60/60/43 59/59/42 
f 49/49/33 50/50/34 61/61/44 60/60/43 
f 50/50/34 51/51/35 62/62/45 61/61/44 
f 51/51/35 52/52/36 63/63/46 62/62/45 
f 52/52/36 53/53/37 64/64/47 63/63/46 
f 53/53/37 54/54/38 65/65/48 64/64/47 
f 54/54/38 55/55/39 66/66/49 65/65/48 
f 57/57/1 56/56/40 67/67/50 68/68/1 
f 56/56/40 58/58/41 69/69/51 67/67/50 
f 58/58/41 59/59/42 70/70/52 69/69/51 
f 59/59/42 60/60/43 71/71/53 70/70/52 
f 60/60/43 61/61/44 72/72/54 71/71/53 
f 61/61/44 62/62/45 73/73/55 72/72/54 
f 62/62/45 63/63/46 74/74/56 73/73/55 
f 63/63/46 64/64/47 75/75/57 74/74/56 
f 64/64/47 65/65/48 76/76/58 75/75/57 
f 65/65/48 66/66/49 77/77/59 76/76/58 
f 68/68/1 67/67/50 78/78/1 79/79/1 
f 67/67/50 69/69/51 80/80/60 78/78/1 
f 69/69/51 70/70/52 81/81/61 80/80/60 
f 70/70/52 71/71/53 82/82/62 81/81/61 
f 71/71/53 72/72/54 83/83/63 82/82/62 
f 72/72/54 73/73/55 84/84/64 83/83/63 
f 73/73/55 74/74/56 85/85/65 84/84/64 
f 74/74/56 75/75/57 86/86/66 85/85/65 
f 75/75/57 76/76/58 87/87/67 86/86/66 
f 76/76/58 77/77/59 88/88/1 87/87/67 
f 79/79/1 78/78/1 89/89/1 90/90/1 
f 78/78/1 80/80/60 91/91/1 89/89/1 
f 80/80/60 81/81/61 92/92/68 91/91/1 
f 81/81/61 82/82/62 93/93/69 92/92/68 
f 82/82/62 83/83/63 94/94/70 93/93/69 
f 83/83/63 84/84/64 95/95/71 94/94/70 
f 84/84/64 85/85/65 96/96/72 95/95/71 
f 85/85/65 86/86/66 97/97/73 96/96/72 
f 86/86/66 87/87/67 98/98/1 97/97/73 
f 87/87/67 88/88/1 99/99/1 98/98/1 
f 90/90/1 89/89/1 100/100/1 101/101/1 
f 89/89/1 91/91/1 102/102/1 100/100/1 
f 91/91/1 92/92/68 103/103/1 102/102/1 
f 92/92/68 93/93/69 104/104/74 103/103/1 
f 93/93/69 94/94/70 105/105/75 104/104/74 
f 94/94/70 95/95/71 106/106/76 105/105/75 
f 95/95/71 96/96/72 107/107/77 106/106/76 
f 96/96/72 97/97/73 108/108/1 107/107/77 
f 97/97/73 98/98/1 109/109/1 108/108/1 
f 98/98/1 99/99/1 110/110/1 109/109/1 
f 101/101/1 100/100/1 111/111/1 112/112/1 
f 100/100/1 102/102/1 113/113/1 111/111/1 
f 102/102/1 103/103/1 114/114/1 113/113/1 
f 103/103/1 104/104/74 115/115/1 114/114/1 
f 104/104/74 105/105/75 116/116/1 115/115/1 
f 105/105/75 106/106/76 117/117/1 116/116/1 
f 106/106/76 107/107/77 118/118/1 117/117/1 
f 107/107/77 108/108/1 119/119/1 118/118/1 
f 108/108/1 109/109/1 120/120/1 119/119/1 
f 109/109/1 110/110/1 121/121/1 120/120/1 
# 100 polygons

