# 3ds Max Wavefront OBJ Exporter v0.97b - (c)2007 guruware
# File Created: 17.07.2015 18:45:17

#
# object mesh_WaterPlane
#

v  -301.9337 102.3986 -0.0000
v  0.0000 102.3986 0.0000
v  -278.6774 102.3986 -126.6753
v  -173.4900 102.3986 -173.4900
v  -126.6752 102.3986 -278.6774
v  0.0000 102.3986 -301.8018
v  126.6752 102.3986 -278.6774
v  173.4900 102.3986 -173.4900
v  278.6774 102.3986 -126.6753
v  301.9337 102.3986 -0.0000
v  -126.6752 102.3986 278.6774
v  -173.4900 102.3986 173.4900
v  -278.6774 102.3986 126.6753
v  0.0000 102.3986 301.8018
v  278.6774 102.3986 126.6753
v  173.4900 102.3986 173.4900
v  126.6752 102.3986 278.6774
# 17 vertices

vn 0.0000 1.0000 -0.0000
# 1 vertex normals

vt 0.4161 0.3159 0.0000
vt 0.4161 0.2064 0.0000
vt 0.4161 0.2500 0.0000
vt 0.4161 0.1915 0.0000
vt 0.4161 0.1312 0.0000
vt 0.2920 0.1468 0.0000
vt 0.4723 0.1915 0.0000
# 7 texture coords

g mesh_WaterPlane
s off
f 1/1/1 2/2/1 3/3/1 
f 3/3/1 2/2/1 4/4/1 
f 4/4/1 2/2/1 5/5/1 
f 5/5/1 2/6/1 6/7/1 
f 7/5/1 2/2/1 8/4/1 
f 9/3/1 2/2/1 10/1/1 
f 8/4/1 2/2/1 9/3/1 
f 6/7/1 2/2/1 7/5/1 
f 11/5/1 2/2/1 12/4/1 
f 13/3/1 2/2/1 1/1/1 
f 12/4/1 2/2/1 13/3/1 
f 14/7/1 2/2/1 11/5/1 
f 10/1/1 2/2/1 15/3/1 
f 15/3/1 2/2/1 16/4/1 
f 16/4/1 2/2/1 17/5/1 
f 17/5/1 2/6/1 14/7/1 
# 0 polygons - 16 triangles

